<svg width="398" height="146" viewBox="0 0 398 146" fill="none" xmlns="http://www.w3.org/2000/svg">
<g filter="url(#filter0_d_0_1)">
<path d="M55.6 4.44L31.06 51.84L27.7 50.34L48.7 10.02H27.4L25.48 14.58L23.08 13.8V0.48L26.98 1.56H55.6V4.44ZM95.0922 4.44L70.5522 51.84L67.1922 50.34L88.1922 10.02H66.8922L64.9722 14.58L62.5722 13.8V0.48L66.4722 1.56H95.0922V4.44ZM134.584 4.44L110.044 51.84L106.684 50.34L127.684 10.02H106.384L104.464 14.58L102.064 13.8V0.48L105.964 1.56H134.584V4.44Z" fill="#D0E0D3"/>
</g>
<g filter="url(#filter1_d_0_1)">
<path d="M24.9 123H15.84V87.72H4.2V80.16H36.54V87.72H24.9V123ZM57.6778 89.64C61.3578 89.64 64.3378 91.08 66.6178 93.96C68.8978 96.8 70.0378 101 70.0378 106.56C70.0378 110.28 69.4978 113.42 68.4178 115.98C67.3378 118.5 65.8578 120.4 63.9778 121.68C62.0978 122.96 59.9178 123.6 57.4378 123.6C55.8778 123.6 54.5178 123.4 53.3578 123C52.2378 122.6 51.2778 122.08 50.4778 121.44C49.6778 120.8 48.9778 120.12 48.3778 119.4H47.8978C48.0578 120.16 48.1778 120.96 48.2578 121.8C48.3378 122.6 48.3778 123.4 48.3778 124.2V137.4H39.4378V90.24H46.6978L47.9578 94.5H48.3778C48.9778 93.62 49.6978 92.82 50.5378 92.1C51.3778 91.34 52.3778 90.74 53.5378 90.3C54.7378 89.86 56.1178 89.64 57.6778 89.64ZM54.7978 96.78C53.2378 96.78 51.9978 97.1 51.0778 97.74C50.1578 98.38 49.4778 99.36 49.0378 100.68C48.6378 101.96 48.4178 103.58 48.3778 105.54V106.5C48.3778 108.62 48.5778 110.42 48.9778 111.9C49.3778 113.34 50.0578 114.44 51.0178 115.2C51.9778 115.96 53.2778 116.34 54.9178 116.34C56.2778 116.34 57.3978 115.96 58.2778 115.2C59.1578 114.44 59.8178 113.32 60.2578 111.84C60.6978 110.36 60.9178 108.56 60.9178 106.44C60.9178 103.24 60.4178 100.84 59.4178 99.24C58.4578 97.6 56.9178 96.78 54.7978 96.78ZM86.0466 103.2C86.0466 103.88 86.0066 104.72 85.9266 105.72C85.8866 106.72 85.8266 107.74 85.7466 108.78C85.7066 109.82 85.6466 110.74 85.5666 111.54C85.4866 112.34 85.4266 112.9 85.3866 113.22L100.507 90.24H111.247V123H102.607V109.92C102.607 108.84 102.647 107.66 102.727 106.38C102.807 105.06 102.887 103.84 102.967 102.72C103.087 101.56 103.167 100.68 103.207 100.08L88.1466 123H77.4066V90.24H86.0466V103.2ZM145.805 123.6C142.565 123.6 139.805 123.02 137.525 121.86C135.245 120.66 133.505 118.82 132.305 116.34C131.105 113.86 130.505 110.68 130.505 106.8C130.505 102.8 131.185 99.54 132.545 97.02C133.905 94.5 135.785 92.64 138.185 91.44C140.625 90.24 143.425 89.64 146.585 89.64C148.825 89.64 150.765 89.86 152.405 90.3C154.085 90.74 155.545 91.26 156.785 91.86L154.145 98.76C152.745 98.2 151.425 97.74 150.185 97.38C148.985 97.02 147.785 96.84 146.585 96.84C145.025 96.84 143.725 97.22 142.685 97.98C141.645 98.7 140.865 99.8 140.345 101.28C139.865 102.72 139.625 104.54 139.625 106.74C139.625 108.9 139.885 110.7 140.405 112.14C140.965 113.54 141.765 114.6 142.805 115.32C143.845 116 145.105 116.34 146.585 116.34C148.465 116.34 150.125 116.1 151.565 115.62C153.005 115.1 154.405 114.4 155.765 113.52V121.14C154.405 122.02 152.965 122.64 151.445 123C149.965 123.4 148.085 123.6 145.805 123.6ZM176.805 89.64C179.845 89.64 182.445 90.22 184.605 91.38C186.805 92.54 188.505 94.22 189.705 96.42C190.905 98.62 191.505 101.32 191.505 104.52V108.84H170.385C170.465 111.36 171.205 113.34 172.605 114.78C174.045 116.22 176.025 116.94 178.545 116.94C180.665 116.94 182.585 116.74 184.305 116.34C186.025 115.9 187.805 115.24 189.645 114.36V121.26C188.045 122.06 186.345 122.64 184.545 123C182.785 123.4 180.645 123.6 178.125 123.6C174.845 123.6 171.945 123 169.425 121.8C166.905 120.56 164.925 118.7 163.485 116.22C162.045 113.74 161.325 110.62 161.325 106.86C161.325 103.02 161.965 99.84 163.245 97.32C164.565 94.76 166.385 92.84 168.705 91.56C171.025 90.28 173.725 89.64 176.805 89.64ZM176.865 96C175.145 96 173.705 96.56 172.545 97.68C171.425 98.8 170.765 100.54 170.565 102.9H183.105C183.105 101.58 182.865 100.4 182.385 99.36C181.945 98.32 181.265 97.5 180.345 96.9C179.425 96.3 178.265 96 176.865 96ZM240.034 90.24V123H231.694V106.92C231.694 105.32 231.714 103.76 231.754 102.24C231.834 100.72 231.934 99.32 232.054 98.04H231.874L222.814 123H216.094L206.914 97.98H206.674C206.834 99.3 206.934 100.72 206.974 102.24C207.054 103.72 207.094 105.36 207.094 107.16V123H198.754V90.24H211.414L219.574 112.44L227.854 90.24H240.034ZM262.879 89.64C265.919 89.64 268.519 90.22 270.679 91.38C272.879 92.54 274.579 94.22 275.779 96.42C276.979 98.62 277.579 101.32 277.579 104.52V108.84H256.459C256.539 111.36 257.279 113.34 258.679 114.78C260.119 116.22 262.099 116.94 264.619 116.94C266.739 116.94 268.659 116.74 270.379 116.34C272.099 115.9 273.879 115.24 275.719 114.36V121.26C274.119 122.06 272.419 122.64 270.619 123C268.859 123.4 266.719 123.6 264.199 123.6C260.919 123.6 258.019 123 255.499 121.8C252.979 120.56 250.999 118.7 249.559 116.22C248.119 113.74 247.399 110.62 247.399 106.86C247.399 103.02 248.039 99.84 249.319 97.32C250.639 94.76 252.459 92.84 254.779 91.56C257.099 90.28 259.799 89.64 262.879 89.64ZM262.939 96C261.219 96 259.779 96.56 258.619 97.68C257.499 98.8 256.839 100.54 256.639 102.9H269.179C269.179 101.58 268.939 100.4 268.459 99.36C268.019 98.32 267.339 97.5 266.419 96.9C265.499 96.3 264.339 96 262.939 96ZM303.068 89.64C306.748 89.64 309.728 91.08 312.008 93.96C314.288 96.8 315.428 101 315.428 106.56C315.428 110.28 314.888 113.42 313.808 115.98C312.728 118.5 311.248 120.4 309.368 121.68C307.488 122.96 305.308 123.6 302.828 123.6C301.268 123.6 299.908 123.4 298.748 123C297.628 122.6 296.668 122.08 295.868 121.44C295.068 120.8 294.368 120.12 293.768 119.4H293.288C293.448 120.16 293.568 120.96 293.648 121.8C293.728 122.6 293.768 123.4 293.768 124.2V137.4H284.828V90.24H292.088L293.348 94.5H293.768C294.368 93.62 295.088 92.82 295.928 92.1C296.768 91.34 297.768 90.74 298.928 90.3C300.128 89.86 301.508 89.64 303.068 89.64ZM300.188 96.78C298.628 96.78 297.388 97.1 296.468 97.74C295.548 98.38 294.868 99.36 294.428 100.68C294.028 101.96 293.808 103.58 293.768 105.54V106.5C293.768 108.62 293.968 110.42 294.368 111.9C294.768 113.34 295.448 114.44 296.408 115.2C297.368 115.96 298.668 116.34 300.308 116.34C301.668 116.34 302.788 115.96 303.668 115.2C304.548 114.44 305.208 113.32 305.648 111.84C306.088 110.36 306.308 108.56 306.308 106.44C306.308 103.24 305.808 100.84 304.808 99.24C303.848 97.6 302.308 96.78 300.188 96.78ZM344.277 90.24H354.117L341.157 105.96L355.257 123H345.117L331.737 106.38V123H322.797V90.24H331.737V106.14L344.277 90.24ZM368.586 103.2C368.586 103.88 368.546 104.72 368.466 105.72C368.426 106.72 368.366 107.74 368.286 108.78C368.246 109.82 368.186 110.74 368.106 111.54C368.026 112.34 367.966 112.9 367.926 113.22L383.046 90.24H393.786V123H385.146V109.92C385.146 108.84 385.186 107.66 385.266 106.38C385.346 105.06 385.426 103.84 385.506 102.72C385.626 101.56 385.706 100.68 385.746 100.08L370.686 123H359.946V90.24H368.586V103.2Z" fill="#D0E0D3"/>
</g>
<defs>
<filter id="filter0_d_0_1" x="19.08" y="0.479996" width="119.504" height="59.36" filterUnits="userSpaceOnUse" color-interpolation-filters="sRGB">
<feFlood flood-opacity="0" result="BackgroundImageFix"/>
<feColorMatrix in="SourceAlpha" type="matrix" values="0 0 0 0 0 0 0 0 0 0 0 0 0 0 0 0 0 0 127 0" result="hardAlpha"/>
<feOffset dy="4"/>
<feGaussianBlur stdDeviation="2"/>
<feComposite in2="hardAlpha" operator="out"/>
<feColorMatrix type="matrix" values="0 0 0 0 0 0 0 0 0 0 0 0 0 0 0 0 0 0 0.25 0"/>
<feBlend mode="normal" in2="BackgroundImageFix" result="effect1_dropShadow_0_1"/>
<feBlend mode="normal" in="SourceGraphic" in2="effect1_dropShadow_0_1" result="shape"/>
</filter>
<filter id="filter1_d_0_1" x="0.200012" y="80.16" width="397.586" height="65.24" filterUnits="userSpaceOnUse" color-interpolation-filters="sRGB">
<feFlood flood-opacity="0" result="BackgroundImageFix"/>
<feColorMatrix in="SourceAlpha" type="matrix" values="0 0 0 0 0 0 0 0 0 0 0 0 0 0 0 0 0 0 127 0" result="hardAlpha"/>
<feOffset dy="4"/>
<feGaussianBlur stdDeviation="2"/>
<feComposite in2="hardAlpha" operator="out"/>
<feColorMatrix type="matrix" values="0 0 0 0 0 0 0 0 0 0 0 0 0 0 0 0 0 0 0.25 0"/>
<feBlend mode="normal" in2="BackgroundImageFix" result="effect1_dropShadow_0_1"/>
<feBlend mode="normal" in="SourceGraphic" in2="effect1_dropShadow_0_1" result="shape"/>
</filter>
</defs>
</svg>
